<?xml version="1.0" encoding="UTF-8"?>
<svg width="728px" height="432px" viewBox="0 0 728 432" version="1.1" xmlns="http://www.w3.org/2000/svg" xmlns:xlink="http://www.w3.org/1999/xlink">
    <!-- Generator: Sketch 55.2 (78181) - https://sketchapp.com -->
    <title>Group 2</title>
    <desc>Created with Sketch.</desc>
    <g id="Page-1" stroke="none" stroke-width="1" fill="none" fill-rule="evenodd">
        <g id="Square" transform="translate(-153.000000, -189.000000)">
            <g id="Group-2" transform="translate(517.000000, 405.000000) scale(1, -1) translate(-517.000000, -405.000000) translate(156.000000, 192.000000)">
                <g id="fibonacci-1601158" stroke="#6FC06B" stroke-width="6.200007">
                    <g id="Group" transform="translate(344.500000, 213.000000) scale(-1, 1) translate(-344.500000, -213.000000) ">
                        <path d="M524.922427,327.787983 C516.249876,327.787983 507.932404,324.336785 501.799432,318.193479 C495.66646,312.050174 492.22181,303.718519 492.22181,295.029729" id="Path" transform="translate(508.572118, 311.408856) rotate(-90.000000) translate(-508.572118, -311.408856) "></path>
                        <path d="M524.922427,295.087366 C516.249876,295.087366 507.932404,291.636168 501.799432,285.492863 C495.66646,279.349557 492.22181,271.017902 492.22181,262.329112" id="Path" transform="translate(508.572118, 278.708239) scale(-1, 1) rotate(90.000000) translate(-508.572118, -278.708239) "></path>
                        <path d="M492.137499,327.81585 C474.792874,327.81585 458.157455,320.913333 445.892701,308.626365 C433.627946,296.339397 426.73698,279.675253 426.73698,262.300055" id="Path" transform="translate(459.437240, 295.057953) rotate(90.000000) translate(-459.437240, -295.057953) "></path>
                        <path d="M524.865982,425.944852 C498.847854,425.944852 473.895915,415.591137 455.498189,397.161817 C437.100463,378.731663 426.765798,353.735745 426.765798,327.671757" id="Path" transform="translate(475.815890, 376.808304) scale(-1, 1) rotate(-90.000000) translate(-475.815890, -376.808304) "></path>
                        <path d="M688.593658,426.003679 C645.230904,426.003679 603.643546,408.747686 572.981066,378.03116 C542.318586,347.314634 525.092954,305.653975 525.092954,262.21479" id="Path" transform="translate(606.843306, 344.109235) rotate(-90.000000) translate(-606.843306, -344.109235) "></path>
                        <path d="M688.506965,262.589669 C619.12621,262.589669 552.591795,234.979603 503.530489,185.832923 C454.470372,136.686243 426.908936,70.0308572 426.908936,0.530068307" id="Path" transform="translate(557.707951, 131.559868) scale(-1, 1) rotate(90.000000) translate(-557.707951, -131.559868) "></path>
                        <path d="M426.299525,426.232256 C313.556015,426.232256 205.434244,381.366161 125.708077,301.50885 C45.9866698,221.646771 1.20436292,113.333022 1.20436292,0.386995231" id="Path" transform="translate(213.751944, 213.309626) rotate(90.000000) translate(-213.751944, -213.309626) "></path>
                    </g>
                </g>
                <path d="M223.026306,327.759164 L196.051138,327.759164" id="Path-2" stroke="#6FC06B" stroke-width="6.2"></path>
                <g id="fibonacci-1601158" transform="translate(33.000000, 0.000000)" stroke="#1F4188" stroke-width="6.200007">
                    <g id="Group" transform="translate(344.500000, 213.000000) scale(-1, 1) translate(-344.500000, -213.000000) ">
                        <path d="M524.922427,327.787983 C516.249876,327.787983 507.932404,324.336785 501.799432,318.193479 C495.66646,312.050174 492.22181,303.718519 492.22181,295.029729" id="Path" transform="translate(508.572118, 311.408856) rotate(-90.000000) translate(-508.572118, -311.408856) "></path>
                        <path d="M524.922427,295.087366 C516.249876,295.087366 507.932404,291.636168 501.799432,285.492863 C495.66646,279.349557 492.22181,271.017902 492.22181,262.329112" id="Path" transform="translate(508.572118, 278.708239) scale(-1, 1) rotate(90.000000) translate(-508.572118, -278.708239) "></path>
                        <path d="M492.137499,327.81585 C474.792874,327.81585 458.157455,320.913333 445.892701,308.626365 C433.627946,296.339397 426.73698,279.675253 426.73698,262.300055" id="Path" transform="translate(459.437240, 295.057953) rotate(90.000000) translate(-459.437240, -295.057953) "></path>
                        <path d="M524.865982,425.944852 C498.847854,425.944852 473.895915,415.591137 455.498189,397.161817 C437.100463,378.731663 426.765798,353.735745 426.765798,327.671757" id="Path" transform="translate(475.815890, 376.808304) scale(-1, 1) rotate(-90.000000) translate(-475.815890, -376.808304) "></path>
                        <path d="M688.593658,426.003679 C645.230904,426.003679 603.643546,408.747686 572.981066,378.03116 C542.318586,347.314634 525.092954,305.653975 525.092954,262.21479" id="Path" transform="translate(606.843306, 344.109235) rotate(-90.000000) translate(-606.843306, -344.109235) "></path>
                        <path d="M688.506965,262.589669 C619.12621,262.589669 552.591795,234.979603 503.530489,185.832923 C454.470372,136.686243 426.908936,70.0308572 426.908936,0.530068307" id="Path" transform="translate(557.707951, 131.559868) scale(-1, 1) rotate(90.000000) translate(-557.707951, -131.559868) "></path>
                        <path d="M426.299525,426.232256 C313.556015,426.232256 205.434244,381.366161 125.708077,301.50885 C45.9866698,221.646771 1.20436292,113.333022 1.20436292,0.386995231" id="Path" transform="translate(213.751944, 213.309626) rotate(90.000000) translate(-213.751944, -213.309626) "></path>
                    </g>
                </g>
            </g>
        </g>
    </g>
</svg>