<?xml version="1.0" encoding="UTF-8"?>
<svg width="1153px" height="729px" viewBox="0 0 1153 729" version="1.1" xmlns="http://www.w3.org/2000/svg" xmlns:xlink="http://www.w3.org/1999/xlink">
    <!-- Generator: Sketch 55.2 (78181) - https://sketchapp.com -->
    <title>Group 3</title>
    <desc>Created with Sketch.</desc>
    <g id="Page-1" stroke="none" stroke-width="1" fill="none" fill-rule="evenodd">
        <g id="Group-3">
            <path d="M33.9896373,614.304286 L0,614.304286 L0,602 L82,602 L82,614.304286 L48.0103627,614.304286 L48.0103627,701 L33.9896373,701 L33.9896373,614.304286 Z M135.946322,625.013477 C145.450677,625.013477 153.002291,627.746603 158.601392,633.212938 C164.200492,638.679273 167,646.691771 167,657.250674 L167,700 L153.449304,700 L153.449304,658.792453 C153.449304,651.597448 151.708434,646.177916 148.22664,642.533693 C144.744847,638.88947 139.757488,637.067385 133.264414,637.067385 C125.924417,637.067385 120.137198,639.19315 115.902584,643.444744 C111.667971,647.696338 109.550696,653.793312 109.550696,661.735849 L109.550696,700 L96,700 L96,596 L109.550696,596 L109.550696,636.226415 C112.373772,632.675634 116.06724,629.919147 120.631213,627.956873 C125.195185,625.994599 130.300171,625.013477 135.946322,625.013477 Z M259,663.351201 C259,664.381398 258.905304,665.739363 258.715909,667.425139 L197.636364,667.425139 C198.488641,673.980932 201.400543,679.248902 206.372159,683.229205 C211.343775,687.209509 217.52269,689.19963 224.909091,689.19963 C233.905348,689.19963 241.149594,686.202741 246.642045,680.208872 L254.170455,688.918669 C250.761347,692.852145 246.5237,695.849035 241.457386,697.909427 C236.391073,699.969819 230.732986,701 224.482955,701 C216.528369,701 209.473516,699.384489 203.318182,696.15342 C197.162848,692.92235 192.404373,688.403603 189.042614,682.597043 C185.680854,676.790482 184,670.234787 184,662.92976 C184,655.718387 185.633506,649.209518 188.900568,643.402957 C192.16763,637.596397 196.665691,633.07765 202.394886,629.84658 C208.124082,626.615511 214.587085,625 221.784091,625 C228.981097,625 235.396752,626.615511 241.03125,629.84658 C246.665748,633.07765 251.069113,637.596397 254.241477,643.402957 C257.413842,649.209518 259,655.858866 259,663.351201 Z M222,636 C215.50585,636 210.07061,638.026296 205.694118,642.078947 C201.317625,646.131599 198.752945,651.438564 198,658 L246,658 C245.247055,651.535055 242.682375,646.252213 238.305882,642.151316 C233.92939,638.050418 228.49415,636 222,636 Z M315,625 L329,625 L329,700 L315,700 L315,625 Z M322.5,612 C319.771781,612 317.506419,611.136009 315.703846,609.408 C313.901273,607.679991 313,605.568012 313,603.072 C313,600.575988 313.901273,598.440009 315.703846,596.664 C317.506419,594.887991 319.771781,594 322.5,594 C325.228219,594 327.493581,594.839992 329.296154,596.52 C331.098727,598.200008 332,600.287988 332,602.784 C332,605.376013 331.098727,607.559991 329.296154,609.336 C327.493581,611.112009 325.228219,612 322.5,612 Z M426,596 L426,700.157754 L412.928962,700.157754 L412.928962,688.36631 C409.897981,692.483978 406.061954,695.618973 401.420765,697.77139 C396.779576,699.923808 391.664873,701 386.076503,701 C378.783206,701 372.247752,699.409107 366.469945,696.227273 C360.692139,693.045439 356.169415,688.5769 352.901639,682.821524 C349.633863,677.066148 348,670.445225 348,662.958556 C348,655.471888 349.633863,648.87436 352.901639,643.165775 C356.169415,637.457191 360.692139,633.012048 366.469945,629.830214 C372.247752,626.64838 378.783206,625.057487 386.076503,625.057487 C391.475437,625.057487 396.448065,626.063493 400.994536,628.075535 C405.541006,630.087577 409.329675,633.058804 412.360656,636.989305 L412.360656,596 L426,596 Z M387.070028,689 C391.738585,689 395.986909,687.907964 399.815126,685.723861 C403.643343,683.539757 406.631175,680.472763 408.778711,676.522788 C410.926248,672.572813 412,668.042027 412,662.930295 C412,657.818562 410.926248,653.287777 408.778711,649.337802 C406.631175,645.387827 403.643343,642.344068 399.815126,640.206434 C395.986909,638.068801 391.738585,637 387.070028,637 C382.308099,637 378.036433,638.068801 374.254902,640.206434 C370.47337,642.344068 367.485539,645.387827 365.291317,649.337802 C363.097095,653.287777 362,657.818562 362,662.930295 C362,668.042027 363.097095,672.572813 365.291317,676.522788 C367.485539,680.472763 370.47337,683.539757 374.254902,685.723861 C378.036433,687.907964 382.308099,689 387.070028,689 Z M519,663.351201 C519,664.381398 518.905304,665.739363 518.715909,667.425139 L457.636364,667.425139 C458.488641,673.980932 461.400543,679.248902 466.372159,683.229205 C471.343775,687.209509 477.52269,689.19963 484.909091,689.19963 C493.905348,689.19963 501.149594,686.202741 506.642045,680.208872 L514.170455,688.918669 C510.761347,692.852145 506.5237,695.849035 501.457386,697.909427 C496.391073,699.969819 490.732986,701 484.482955,701 C476.528369,701 469.473516,699.384489 463.318182,696.15342 C457.162848,692.92235 452.404373,688.403603 449.042614,682.597043 C445.680854,676.790482 444,670.234787 444,662.92976 C444,655.718387 445.633506,649.209518 448.900568,643.402957 C452.16763,637.596397 456.665691,633.07765 462.394886,629.84658 C468.124082,626.615511 474.587085,625 481.784091,625 C488.981097,625 495.396752,626.615511 501.03125,629.84658 C506.665748,633.07765 511.069113,637.596397 514.241477,643.402957 C517.413842,649.209518 519,655.858866 519,663.351201 Z M482,636 C475.50585,636 470.07061,638.026296 465.694118,642.078947 C461.317625,646.131599 458.752945,651.438564 458,658 L506,658 C505.247055,651.535055 502.682375,646.252213 498.305882,642.151316 C493.92939,638.050418 488.49415,636 482,636 Z M564.993492,625 C575.333385,625 583.252684,627.528625 588.751627,632.585952 C594.25057,637.643279 597,645.182328 597,655.203327 L597,700.157116 L584.169197,700.157116 L584.169197,690.323475 C581.913221,693.78868 578.693803,696.434372 574.510846,698.260628 C570.327889,700.086885 565.369515,701 559.635575,701 C551.269662,701 544.572332,698.986465 539.543384,694.959335 C534.514436,690.932204 532,685.640821 532,679.085028 C532,672.529234 534.396939,667.261265 539.190889,663.280961 C543.98484,659.300658 551.598646,657.310536 562.032538,657.310536 L583.464208,657.310536 L583.464208,654.641405 C583.464208,648.834845 581.772251,644.386337 578.388286,641.295749 C575.004321,638.20516 570.022448,636.659889 563.442516,636.659889 C559.024562,636.659889 554.700672,637.385698 550.470716,638.837338 C546.24076,640.288978 542.66885,642.232274 539.754881,644.667283 L534.114967,634.55268 C537.968927,631.462092 542.574811,629.097359 547.932755,627.45841 C553.290699,625.819462 558.977555,625 564.993492,625 Z M561.466667,691 C566.627186,691 571.083932,689.833345 574.837037,687.5 C578.590142,685.166655 581.311103,681.857164 583,677.571429 L583,667 L562.17037,667 C550.7234,667 545,670.904723 545,678.714286 C545,682.523829 546.454306,685.523799 549.362963,687.714286 C552.271619,689.904773 556.306147,691 561.466667,691 Z M732,626.70068 L732,690.882993 C732,703.868999 728.732047,713.468223 722.196043,719.680952 C715.660039,725.893682 705.903542,729 692.926259,729 C685.821907,729 679.049193,728.042413 672.607914,726.127211 C666.166634,724.212009 660.956854,721.479383 656.978417,717.929252 L663.514388,707.559184 C667.019202,710.548768 671.352792,712.907701 676.515288,714.636054 C681.677784,716.364408 687.005968,717.228571 692.5,717.228571 C701.309397,717.228571 707.821622,715.173263 712.036871,711.062585 C716.252119,706.951907 718.359712,700.692559 718.359712,692.284354 L718.359712,686.398639 C715.139073,690.229044 711.184376,693.101804 706.495504,695.017007 C701.806631,696.932209 696.715255,697.889796 691.221223,697.889796 C684.022146,697.889796 677.509921,696.371671 671.684353,693.335374 C665.858784,690.299078 661.288386,686.048327 657.973022,680.582993 C654.657657,675.11766 653,668.881668 653,661.87483 C653,654.867992 654.657657,648.632 657.973022,643.166667 C661.288386,637.701333 665.858784,633.473938 671.684353,630.484354 C677.509921,627.49477 684.022146,626 691.221223,626 C696.904705,626 702.185527,627.027654 707.063849,629.082993 C711.942171,631.138332 715.944229,634.174583 719.070144,638.191837 L719.070144,626.70068 L732,626.70068 Z M692.569863,686 C697.413723,686 701.768474,684.97972 705.634247,682.93913 C709.500019,680.898541 712.527386,678.046395 714.716438,674.382609 C716.90549,670.718822 718,666.568139 718,661.930435 C718,654.78837 715.624681,649.014515 710.873973,644.608696 C706.123264,640.202877 700.021955,638 692.569863,638 C685.02462,638 678.876736,640.202877 674.126027,644.608696 C669.375319,649.014515 667,654.78837 667,661.930435 C667,666.568139 668.09451,670.718822 670.283562,674.382609 C672.472614,678.046395 675.499981,680.898541 679.365753,682.93913 C683.231526,684.97972 687.632852,686 692.569863,686 Z M784.993492,625 C795.333385,625 803.252684,627.528625 808.751627,632.585952 C814.25057,637.643279 817,645.182328 817,655.203327 L817,700.157116 L804.169197,700.157116 L804.169197,690.323475 C801.913221,693.78868 798.693803,696.434372 794.510846,698.260628 C790.327889,700.086885 785.369515,701 779.635575,701 C771.269662,701 764.572332,698.986465 759.543384,694.959335 C754.514436,690.932204 752,685.640821 752,679.085028 C752,672.529234 754.396939,667.261265 759.190889,663.280961 C763.98484,659.300658 771.598646,657.310536 782.032538,657.310536 L803.464208,657.310536 L803.464208,654.641405 C803.464208,648.834845 801.772251,644.386337 798.388286,641.295749 C795.004321,638.20516 790.022448,636.659889 783.442516,636.659889 C779.024562,636.659889 774.700672,637.385698 770.470716,638.837338 C766.24076,640.288978 762.66885,642.232274 759.754881,644.667283 L754.114967,634.55268 C757.968927,631.462092 762.574811,629.097359 767.932755,627.45841 C773.290699,625.819462 778.977555,625 784.993492,625 Z M781.466667,691 C786.627186,691 791.083932,689.833345 794.837037,687.5 C798.590142,685.166655 801.311103,681.857164 803,677.571429 L803,667 L782.17037,667 C770.7234,667 765,670.904723 765,678.714286 C765,682.523829 766.454306,685.523799 769.362963,687.714286 C772.271619,689.904773 776.306147,691 781.466667,691 Z M854.912281,637.353271 C857.251474,632.996863 860.713427,629.682254 865.298246,627.409346 C869.883064,625.136437 875.45026,624 882,624 L882,637.211215 C881.251458,637.11651 880.222229,637.069159 878.912281,637.069159 C871.613999,637.069159 865.883062,639.271006 861.719298,643.674766 C857.555535,648.078527 855.473684,654.352607 855.473684,662.497196 L855.473684,700 L842,700 L842,624.71028 L854.912281,624.71028 L854.912281,637.353271 Z M971,596 L971,700.157754 L957.928962,700.157754 L957.928962,688.36631 C954.897981,692.483978 951.061954,695.618973 946.420765,697.77139 C941.779576,699.923808 936.664873,701 931.076503,701 C923.783206,701 917.247752,699.409107 911.469945,696.227273 C905.692139,693.045439 901.169415,688.5769 897.901639,682.821524 C894.633863,677.066148 893,670.445225 893,662.958556 C893,655.471888 894.633863,648.87436 897.901639,643.165775 C901.169415,637.457191 905.692139,633.012048 911.469945,629.830214 C917.247752,626.64838 923.783206,625.057487 931.076503,625.057487 C936.475437,625.057487 941.448065,626.063493 945.994536,628.075535 C950.541006,630.087577 954.329675,633.058804 957.360656,636.989305 L957.360656,596 L971,596 Z M932.070028,689 C936.738585,689 940.986909,687.907964 944.815126,685.723861 C948.643343,683.539757 951.631175,680.472763 953.778711,676.522788 C955.926248,672.572813 957,668.042027 957,662.930295 C957,657.818562 955.926248,653.287777 953.778711,649.337802 C951.631175,645.387827 948.643343,642.344068 944.815126,640.206434 C940.986909,638.068801 936.738585,637 932.070028,637 C927.308099,637 923.036433,638.068801 919.254902,640.206434 C915.47337,642.344068 912.485539,645.387827 910.291317,649.337802 C908.097095,653.287777 907,657.818562 907,662.930295 C907,668.042027 908.097095,672.572813 910.291317,676.522788 C912.485539,680.472763 915.47337,683.539757 919.254902,685.723861 C923.036433,687.907964 927.308099,689 932.070028,689 Z M1063,663.351201 C1063,664.381398 1062.9053,665.739363 1062.71591,667.425139 L1001.63636,667.425139 C1002.48864,673.980932 1005.40054,679.248902 1010.37216,683.229205 C1015.34377,687.209509 1021.52269,689.19963 1028.90909,689.19963 C1037.90535,689.19963 1045.14959,686.202741 1050.64205,680.208872 L1058.17045,688.918669 C1054.76135,692.852145 1050.5237,695.849035 1045.45739,697.909427 C1040.39107,699.969819 1034.73299,701 1028.48295,701 C1020.52837,701 1013.47352,699.384489 1007.31818,696.15342 C1001.16285,692.92235 996.404373,688.403603 993.042614,682.597043 C989.680854,676.790482 988,670.234787 988,662.92976 C988,655.718387 989.633506,649.209518 992.900568,643.402957 C996.16763,637.596397 1000.66569,633.07765 1006.39489,629.84658 C1012.12408,626.615511 1018.58709,625 1025.78409,625 C1032.9811,625 1039.39675,626.615511 1045.03125,629.84658 C1050.66575,633.07765 1055.06911,637.596397 1058.24148,643.402957 C1061.41384,649.209518 1063,655.858866 1063,663.351201 Z M1026,636 C1019.50585,636 1014.07061,638.026296 1009.69412,642.078947 C1005.31763,646.131599 1002.75294,651.438564 1002,658 L1050,658 C1049.24706,651.535055 1046.68237,646.252213 1042.30588,642.151316 C1037.92939,638.050418 1032.49415,636 1026,636 Z M1121.94632,624 C1131.45068,624 1139.00229,626.770066 1144.60139,632.31028 C1150.20049,637.850495 1153,645.971286 1153,656.672897 L1153,700 L1139.4493,700 L1139.4493,658.235514 C1139.4493,650.943266 1137.70843,645.450486 1134.22664,641.757009 C1130.74485,638.063533 1125.75749,636.216822 1119.26441,636.216822 C1111.92442,636.216822 1106.1372,638.371318 1101.90258,642.680374 C1097.66797,646.98943 1095.5507,653.168807 1095.5507,661.218692 L1095.5507,700 L1082,700 L1082,624.71028 L1094.98608,624.71028 L1094.98608,636.074766 C1097.71506,632.191881 1101.40853,629.208733 1106.0666,627.125234 C1110.72468,625.041734 1116.01786,624 1121.94632,624 Z" id="Theideagarden" fill="#FFFFFF" fill-rule="nonzero"></path>
            <g id="Group-2">
                <polygon id="Fill-2" fill="#FFFFFE" points="0 390.89828 122.339324 213.232542 122.339324 212.176368 10.6751173 212.176368 10.6751173 176 179.225584 176 179.225584 201.519468 58.3172403 377.776973 58.3172403 378.833148 181 378.833148 181 415 0 415"></polygon>
                <path d="M290.606246,330.475066 C259.715654,330.112493 230.290605,336.505219 230.290605,362.810807 C230.290605,379.889879 241.272658,387.694729 255.11918,387.694729 C272.857955,387.694729 285.248451,376.321402 289.511848,363.8699 C290.606246,360.69262 290.606246,357.477174 290.606246,354.290353 L290.606246,330.475066 Z M333.154563,373.487612 C333.154563,389.125936 333.858785,404.401687 336,415.078492 L296.611164,415.078492 L293.413617,395.871692 L292.357284,395.871692 C282.079453,409.391829 263.969534,419 241.272658,419 C206.518362,419 187,393.743964 187,367.438376 C187,324.063258 225.684614,301.669636 289.511848,302.032209 L289.511848,299.188877 C289.511848,287.806009 284.915373,268.95224 254.395925,268.95224 C237.370888,268.95224 219.64163,274.285872 207.945839,281.766315 L199.419046,253.304375 C212.209235,245.480443 234.544485,238 261.856869,238 C317.185859,238 333.154563,273.217238 333.154563,311.258724 L333.154563,373.487612 Z" id="Fill-3" fill="#FFFFFE"></path>
                <path d="M397.031176,343.345811 C397.031176,347.602298 397.402155,351.506457 398.08704,355.42014 C402.719525,373.160261 417.929675,385.92972 436.754495,385.92972 C464.397207,385.92972 480.710782,362.86661 480.710782,328.805197 C480.710782,298.295617 465.82405,273.442307 437.810359,273.442307 C419.73701,273.442307 403.07148,286.583137 398.458019,305.742087 C397.75411,309.274876 397.031176,313.19808 397.031176,316.749913 L397.031176,343.345811 Z M353.407819,300.419099 C353.407819,277.708316 352.722934,259.234974 352,242.913682 L390.305988,242.913682 L392.446253,269.528625 L393.150162,269.528625 C405.896629,249.998304 426.110244,239 452.354649,239 C492.058943,239 525,273.080458 525,327.034041 C525,389.462508 485.666685,419.648329 446.304833,419.648329 C424.711937,419.648329 406.619563,410.402136 397.75411,396.566174 L397.031176,396.566174 L397.031176,486 L353.407819,486 L353.407819,300.419099 Z" id="Fill-5" fill="#FFFFFE"></path>
                <polygon id="Fill-7" fill="#FFFFFE" points="602 415 646 415 646 242 602 242"></polygon>
                <path d="M669.409864,293.468075 C669.409864,273.564039 668.68588,256.845412 668,241.919769 L705.990112,241.919769 L708.114434,267.870359 L709.152779,267.870359 C716.983239,254.356215 735.816351,238 764.556614,238 C794.735319,238 826,257.560698 826,312.313487 L826,415 L782.313276,415 L782.313276,317.272806 C782.313276,292.399914 773.082479,273.564039 749.305318,273.564039 C731.891595,273.564039 719.812492,286.010022 715.201857,299.161754 C713.782467,302.728649 713.077535,308.05038 713.077535,313.019236 L713.077535,415 L669.409864,415 L669.409864,293.468075 Z" id="Fill-9" fill="#FFFFFE"></path>
                <path d="M967.920631,311.149987 C967.920631,306.910926 967.568151,303.014801 966.51071,299.442559 C961.871308,283.486546 949.44876,271.379028 930.986415,271.379028 C906.503326,271.379028 888.374408,292.707693 888.374408,327.839501 C888.374408,357.293825 903.302424,381.070667 930.633935,381.070667 C946.971871,381.070667 961.1854,370.430149 966.129651,354.46461 C967.568151,350.206497 967.920631,344.167027 967.920631,339.194467 L967.920631,311.149987 Z M1011.59008,389.586891 C1011.59008,425.795135 1004.14989,451.724847 986.02097,468.052374 C968.292165,484.027439 943.066009,489 919.28788,489 C897.2531,489 873.827452,484.027439 858.928016,475.158754 L868.483089,442.141713 C879.505242,448.514593 897.977114,455.278037 918.906821,455.278037 C947.324352,455.278037 968.625592,440.350829 968.625592,403.075676 L968.625592,388.177047 L967.920631,388.177047 C957.984498,403.437664 940.589121,413.735246 917.4969,413.735246 C874.532413,413.735246 844,378.250977 844,329.249345 C844,272.455463 880.915163,238 922.450676,238 C949.105806,238 964.348196,250.793389 972.531454,265.006148 L973.245941,265.006148 L975.027396,241.915177 L1013,241.915177 C1012.29504,253.622604 1011.59008,267.84489 1011.59008,291.631257 L1011.59008,389.586891 Z" id="Fill-10" fill="#FFFFFE"></path>
                <path d="M1036.90765,375.055356 C1046.4829,381.083245 1065.32822,387.824213 1080.95953,387.824213 C1100.18632,387.824213 1108.67434,379.676104 1108.67434,368.333404 C1108.67434,356.648426 1101.59781,350.991337 1080.25378,343.185506 C1046.4829,331.852314 1032.64457,313.445383 1032.64457,292.889711 C1032.64457,262.407986 1057.86067,239 1098.0214,239 C1117.22912,239 1133.93813,243.620748 1144.23819,249.296852 L1135.34962,279.778576 C1128.23494,275.528629 1114.02466,269.852525 1098.74622,269.852525 C1083.10537,269.852525 1074.56967,277.658356 1074.56967,288.287978 C1074.56967,299.259877 1082.77157,304.232411 1104.78321,312.371012 C1136.41777,323.352419 1150.62805,339.287344 1151,364.806043 C1151,396.324107 1126.47057,419 1080.60665,419 C1059.65364,419 1040.81786,414.036974 1028,406.953729 L1036.90765,375.055356 Z" id="Fill-11" fill="#FFFFFE"></path>
                <path d="M537,163.717855 C537,151.712628 546.620531,142 558.495284,142 C570.398333,142 580,151.712628 580,163.717855 L580,415 L537,415 L537,163.717855 Z" id="Fill-12" fill="#5FD561"></path>
                <path d="M546.514781,249 C546.514781,249 524.350737,209.098682 505.737891,199.342277 C505.737891,199.342277 263.532878,245.459139 205,11.3054114 C205,11.3054114 393.660949,-64.9563636 529.663253,178.658697 C529.663253,178.658697 416.719932,66.302982 296.074416,45.0102223 C296.074416,45.0102223 481.803009,128.991455 548,227.136134 L546.514781,249 Z" id="Fill-13" fill="#5FD561"></path>
                <path d="M606,215.809225 C606,215.809225 607.769907,31.1907755 803.74428,25 C803.74428,25 818.817036,207.818362 617.523426,222 C617.523426,222 674.284152,123.490476 742.549272,71.1355637 C742.549272,71.1355637 666.291023,103.965722 606,215.809225" id="Fill-14" fill="#5FD561"></path>
            </g>
        </g>
    </g>
</svg>